<svg aria-hidden="true" style="position: absolute; width: 0; height: 0; overflow: hidden;" version="1.1" xmlns="http://www.w3.org/2000/svg" xmlns:xlink="http://www.w3.org/1999/xlink">
<defs>
<symbol id="comment" viewBox="0 0 32 32">
<path fill="#2394bc" style="fill: var(--color1, #2394bc)" d="M16 2c-8.838 0-15.998 5.819-15.998 13 0 2.977 1.244 5.703 3.307 7.887-0.93 2.469-2.867 4.555-2.898 4.578-0.414 0.438-0.523 1.078-0.289 1.625 0.242 0.547 0.777 0.909 1.379 0.909 3.844 0 6.819-1.609 8.694-2.891 1.75 0.566 3.762 0.891 5.806 0.891 8.838 0 15.944-5.821 15.944-13s-7.106-13-15.944-13zM16.006 25c-1.672 0-3.32-0.258-4.899-0.758l-1.422-0.445-1.219 0.859c-0.891 0.633-2.117 1.336-3.594 1.813 0.461-0.758 0.898-1.609 1.242-2.516l0.664-1.75-1.289-1.367c-1.127-1.205-2.486-3.199-2.486-5.837 0-5.516 5.828-10 13-10s13 4.484 13 10-5.829 10-12.998 10z"></path>
</symbol>
<symbol id="email" viewBox="0 0 32 32">
<path fill="#d4dee3" style="fill: var(--color2, #d4dee3)" d="M31.394 11.925c0.244-0.194 0.606-0.012 0.606 0.294v12.781c0 1.656-1.344 3-3 3h-26c-1.656 0-3-1.344-3-3v-12.775c0-0.313 0.356-0.488 0.606-0.294 1.4 1.088 3.256 2.469 9.631 7.1 1.319 0.962 3.544 2.988 5.763 2.975 2.231 0.019 4.5-2.050 5.769-2.975 6.375-4.631 8.225-6.019 9.625-7.106zM16 20c1.45 0.025 3.538-1.825 4.587-2.587 8.294-6.019 8.925-6.544 10.837-8.044 0.363-0.281 0.575-0.719 0.575-1.181v-1.188c0-1.656-1.344-3-3-3h-26c-1.656 0-3 1.344-3 3v1.188c0 0.463 0.212 0.894 0.575 1.181 1.912 1.494 2.544 2.025 10.838 8.044 1.050 0.762 3.138 2.613 4.588 2.587z"></path>
</symbol>
<symbol id="instagram" viewBox="0 0 28 32">
<path fill="#fff" style="fill: var(--color3, #fff)" d="M14.006 8.813c-3.975 0-7.181 3.206-7.181 7.181s3.206 7.181 7.181 7.181 7.181-3.206 7.181-7.181-3.206-7.181-7.181-7.181zM14.006 20.663c-2.569 0-4.669-2.094-4.669-4.669s2.094-4.669 4.669-4.669 4.669 2.094 4.669 4.669-2.1 4.669-4.669 4.669zM23.156 8.519c0 0.931-0.75 1.675-1.675 1.675-0.931 0-1.675-0.75-1.675-1.675s0.75-1.675 1.675-1.675 1.675 0.75 1.675 1.675zM27.913 10.219c-0.106-2.244-0.619-4.231-2.262-5.869-1.637-1.638-3.625-2.15-5.869-2.263-2.313-0.131-9.244-0.131-11.556 0-2.237 0.106-4.225 0.619-5.869 2.256s-2.15 3.625-2.263 5.869c-0.131 2.313-0.131 9.244 0 11.556 0.106 2.244 0.619 4.231 2.263 5.869s3.625 2.15 5.869 2.262c2.313 0.131 9.244 0.131 11.556 0 2.244-0.106 4.231-0.619 5.869-2.262 1.637-1.637 2.15-3.625 2.262-5.869 0.131-2.313 0.131-9.238 0-11.55zM24.925 24.25c-0.488 1.225-1.431 2.169-2.663 2.663-1.844 0.731-6.219 0.563-8.256 0.563s-6.419 0.163-8.256-0.563c-1.225-0.488-2.169-1.431-2.663-2.663-0.731-1.844-0.563-6.219-0.563-8.256s-0.163-6.419 0.563-8.256c0.487-1.225 1.431-2.169 2.663-2.662 1.844-0.731 6.219-0.563 8.256-0.563s6.419-0.162 8.256 0.563c1.225 0.487 2.169 1.431 2.663 2.662 0.731 1.844 0.563 6.219 0.563 8.256s0.169 6.419-0.563 8.256z"></path>
</symbol>
<symbol id="lock-repeat" viewBox="0 0 28 32">
<path fill="#d4dee3" style="fill: var(--color2, #d4dee3)" d="M25 14h-1.5v-4.5c0-5.237-4.262-9.5-9.5-9.5s-9.5 4.263-9.5 9.5v4.5h-1.5c-1.656 0-3 1.344-3 3v12c0 1.656 1.344 3 3 3h22c1.656 0 3-1.344 3-3v-12c0-1.656-1.344-3-3-3zM18.5 14h-9v-4.5c0-2.481 2.019-4.5 4.5-4.5s4.5 2.019 4.5 4.5v4.5z"></path>
</symbol>
<symbol id="magnifying-glass-solid" viewBox="0 0 32 32">
<path d="M31.269 27.731l-7.481-7.481c1.701-2.526 2.541-5.681 2.091-9.044-0.766-5.719-5.454-10.374-11.179-11.099-8.512-1.077-15.669 6.080-14.592 14.592 0.725 5.728 5.38 10.419 11.1 11.181 3.362 0.449 6.519-0.39 9.044-2.091l7.481 7.481c0.976 0.976 2.559 0.976 3.536 0 0.975-0.977 0.975-2.565 0-3.54zM4.944 13c0-4.411 3.589-8 8-8s8 3.589 8 8c0 4.411-3.589 8-8 8s-8-3.587-8-8z"></path>
</symbol>
<symbol id="message" viewBox="0 0 32 32">
<path fill="#d4dee3" style="fill: var(--color2, #d4dee3)" d="M25.333 13.367v-6.7c0-1.471-1.196-2.667-2.667-2.667h-20c-1.471 0-2.667 1.196-2.667 2.667v13.333c0 1.471 1.196 2.667 2.667 2.667h14.951c0.873 3.073 3.699 5.333 7.049 5.333 1.289 0 2.557-0.339 3.667-0.982 0.318-0.184 0.428-0.592 0.243-0.911s-0.592-0.429-0.911-0.243c-0.908 0.525-1.945 0.802-2.999 0.802-3.309 0-6-2.691-6-6s2.691-6 6-6 6 2.691 6 6v0.667c0 0.735-0.598 1.333-1.333 1.333s-1.333-0.598-1.333-1.333v-2.667c0-0 0-0 0-0 0-0.368-0.298-0.666-0.666-0.666-0 0-0 0-0 0h0c-0.179 0-0.34 0.073-0.46 0.188-0.589-0.525-1.357-0.854-2.207-0.854-1.838 0-3.333 1.495-3.333 3.333s1.495 3.333 3.333 3.333c0.994 0 1.877-0.446 2.488-1.138 0.483 0.686 1.277 1.138 2.179 1.138 1.471 0 2.667-1.196 2.667-2.667v-0.667c0-3.819-2.935-6.961-6.667-7.3zM2.667 5.333h20c0.028 0 0.051 0.014 0.078 0.016l-9.53 7.823c-0.339 0.214-0.831 0.169-1.051 0.034l-9.574-7.857c0.027-0.002 0.050-0.016 0.078-0.016zM24 13.367c-3.732 0.338-6.667 3.481-6.667 7.3 0 0.225 0.014 0.447 0.034 0.667h-14.7c-0.735 0-1.333-0.598-1.333-1.333v-13.333c0-0.189 0.042-0.367 0.113-0.53l9.93 8.143c0.388 0.253 0.834 0.387 1.29 0.387 0.439 0 0.868-0.124 1.245-0.358 0.041-0.022 0.076-0.046 0.108-0.073l-0.001 0.001 9.867-8.1c0.071 0.163 0.113 0.341 0.113 0.53v6.7zM24.667 22.667c-1.103 0-2-0.897-2-2s0.897-2 2-2 2 0.897 2 2-0.897 2-2 2z"></path>
</symbol>
<symbol id="password" viewBox="0 0 28 32">
<path fill="#d4dee3" style="fill: var(--color2, #d4dee3)" d="M25 14h-1.5v-4.5c0-5.237-4.262-9.5-9.5-9.5s-9.5 4.263-9.5 9.5v4.5h-1.5c-1.656 0-3 1.344-3 3v12c0 1.656 1.344 3 3 3h22c1.656 0 3-1.344 3-3v-12c0-1.656-1.344-3-3-3zM18.5 14h-9v-4.5c0-2.481 2.019-4.5 4.5-4.5s4.5 2.019 4.5 4.5v4.5z"></path>
</symbol>
<symbol id="password-2" viewBox="0 0 28 32">
<path fill="#00b3e9" style="fill: var(--color4, #00b3e9)" d="M25 14h-1.5v-4.5c0-5.237-4.262-9.5-9.5-9.5s-9.5 4.263-9.5 9.5v4.5h-1.5c-1.656 0-3 1.344-3 3v12c0 1.656 1.344 3 3 3h22c1.656 0 3-1.344 3-3v-12c0-1.656-1.344-3-3-3zM18.5 14h-9v-4.5c0-2.481 2.019-4.5 4.5-4.5s4.5 2.019 4.5 4.5v4.5z"></path>
</symbol>
<symbol id="phone" viewBox="0 0 32 32">
<path fill="#d4dee3" style="fill: var(--color2, #d4dee3)" d="M31.087 22.613l-7-3c-0.173-0.076-0.376-0.12-0.588-0.12-0.467 0-0.885 0.214-1.16 0.549l-0.002 0.003-3.1 3.788c-4.885-2.34-8.734-6.189-11.014-10.935l-0.060-0.139 3.787-3.1c0.338-0.277 0.552-0.694 0.552-1.161 0-0.213-0.044-0.415-0.125-0.599l0.004 0.010-3-7c-0.239-0.538-0.768-0.906-1.384-0.906-0.119 0-0.234 0.014-0.345 0.040l0.010-0.002-6.5 1.5c-0.671 0.159-1.163 0.753-1.163 1.462 0 0 0 0 0 0v-0c0 16.031 12.994 29 29 29 0 0 0.001 0 0.001 0 0.709 0 1.303-0.492 1.459-1.152l0.002-0.010 1.5-6.5c0.023-0.1 0.037-0.215 0.037-0.333 0-0.619-0.371-1.152-0.903-1.388l-0.010-0.004z"></path>
</symbol>
<symbol id="profile" viewBox="0 0 28 32">
<path fill="#d4dee3" style="fill: var(--color2, #d4dee3)" d="M14 16c4.419 0 8-3.581 8-8s-3.581-8-8-8-8 3.581-8 8 3.581 8 8 8zM19.6 18h-1.044c-1.387 0.637-2.931 1-4.556 1s-3.162-0.363-4.556-1h-1.044c-4.638 0-8.4 3.762-8.4 8.4v2.6c0 1.656 1.344 3 3 3h22c1.656 0 3-1.344 3-3v-2.6c0-4.637-3.762-8.4-8.4-8.4z"></path>
</symbol>
<symbol id="search" viewBox="0 0 32 32">
<path fill="#2394bc" style="fill: var(--color1, #2394bc)" d="M31.269 27.731l-7.481-7.481c1.701-2.526 2.541-5.681 2.091-9.044-0.766-5.719-5.454-10.374-11.179-11.099-8.512-1.077-15.669 6.080-14.592 14.592 0.725 5.728 5.38 10.419 11.1 11.181 3.362 0.449 6.519-0.39 9.044-2.091l7.481 7.481c0.976 0.976 2.559 0.976 3.536 0 0.975-0.977 0.975-2.565 0-3.54zM4.944 13c0-4.411 3.589-8 8-8s8 3.589 8 8c0 4.411-3.589 8-8 8s-8-3.587-8-8z"></path>
</symbol>
<symbol id="telegram" viewBox="0 0 31 32">
<path fill="#fff" style="fill: var(--color3, #fff)" d="M15.5 0.5c-8.56 0-15.5 6.94-15.5 15.5s6.94 15.5 15.5 15.5 15.5-6.94 15.5-15.5-6.94-15.5-15.5-15.5zM22.684 11.041c-0.233 2.451-1.243 8.399-1.756 11.144-0.217 1.162-0.645 1.551-1.059 1.589-0.9 0.083-1.584-0.595-2.455-1.166-1.364-0.894-2.135-1.451-3.459-2.324-1.53-1.008-0.538-1.563 0.334-2.469 0.228-0.237 4.194-3.844 4.271-4.172 0.010-0.041 0.019-0.194-0.072-0.274s-0.224-0.053-0.321-0.031q-0.205 0.047-6.538 4.321-0.928 0.637-1.681 0.621c-0.553-0.012-1.618-0.313-2.409-0.57-0.971-0.316-1.742-0.482-1.675-1.018q0.053-0.419 1.153-0.856 6.778-2.953 9.039-3.894c4.305-1.79 5.199-2.101 5.782-2.112 0.128-0.002 0.415 0.030 0.601 0.18 0.12 0.105 0.201 0.251 0.22 0.417l0 0.003c0.021 0.127 0.033 0.273 0.033 0.421 0 0.067-0.002 0.133-0.007 0.198l0-0.009z"></path>
</symbol>
<symbol id="time" viewBox="0 0 32 32">
<path fill="#00b3e9" style="fill: var(--color4, #00b3e9)" d="M21.701 18.826l-4.462-3.346v-6.816c0-0.685-0.554-1.239-1.239-1.239s-1.239 0.554-1.239 1.239v7.436c0 0.39 0.183 0.759 0.496 0.991l4.957 3.718c0.204 0.155 0.462 0.248 0.741 0.248 0 0 0.001 0 0.001 0h-0c0.378 0 0.75-0.17 0.993-0.497 0.412-0.547 0.3-1.324-0.248-1.734z"></path>
<path fill="#00b3e9" style="fill: var(--color4, #00b3e9)" d="M16 0c-8.823 0-16 7.177-16 16s7.177 16 16 16 16-7.177 16-16-7.177-16-16-16zM16 29.521c-7.455 0-13.521-6.067-13.521-13.521s6.067-13.521 13.521-13.521c7.456 0 13.521 6.067 13.521 13.521s-6.067 13.521-13.521 13.521z"></path>
</symbol>
<symbol id="twitter" viewBox="0 0 32 32">
<path fill="#fff" style="fill: var(--color3, #fff)" d="M28.711 9.482c0.020 0.284 0.020 0.569 0.020 0.853 0 8.67-6.599 18.66-18.66 18.66-3.716 0-7.168-1.076-10.071-2.944 0.528 0.061 1.036 0.081 1.584 0.081 3.066 0 5.888-1.035 8.142-2.802-2.883-0.061-5.3-1.949-6.132-4.548 0.406 0.061 0.812 0.102 1.239 0.102 0.589 0 1.178-0.081 1.726-0.223-3.005-0.609-5.259-3.249-5.259-6.437v-0.081c0.873 0.487 1.888 0.792 2.964 0.832-1.766-1.178-2.924-3.188-2.924-5.462 0-1.218 0.325-2.335 0.893-3.31 3.228 3.98 8.081 6.579 13.523 6.863-0.101-0.487-0.162-0.995-0.162-1.502 0-3.614 2.924-6.558 6.558-6.558 1.888 0 3.594 0.792 4.792 2.071 1.482-0.284 2.904-0.832 4.162-1.584-0.487 1.523-1.523 2.802-2.883 3.614 1.32-0.142 2.599-0.508 3.777-1.015-0.893 1.299-2.010 2.457-3.289 3.391z"></path>
</symbol>
<symbol id="user" viewBox="0 0 28 32">
<path fill="#d4dee3" style="fill: var(--color2, #d4dee3)" d="M14 16c4.419 0 8-3.581 8-8s-3.581-8-8-8-8 3.581-8 8 3.581 8 8 8zM19.6 18h-1.044c-1.387 0.637-2.931 1-4.556 1s-3.162-0.363-4.556-1h-1.044c-4.638 0-8.4 3.762-8.4 8.4v2.6c0 1.656 1.344 3 3 3h22c1.656 0 3-1.344 3-3v-2.6c0-4.637-3.762-8.4-8.4-8.4z"></path>
</symbol>
<symbol id="user-2" viewBox="0 0 28 32">
<path fill="#00b3e9" style="fill: var(--color4, #00b3e9)" d="M14 16c4.419 0 8-3.581 8-8s-3.581-8-8-8-8 3.581-8 8 3.581 8 8 8zM19.6 18h-1.044c-1.387 0.637-2.931 1-4.556 1s-3.162-0.363-4.556-1h-1.044c-4.638 0-8.4 3.762-8.4 8.4v2.6c0 1.656 1.344 3 3 3h22c1.656 0 3-1.344 3-3v-2.6c0-4.637-3.762-8.4-8.4-8.4z"></path>
</symbol>
<symbol id="user-plus" viewBox="0 0 40 32">
<path fill="#00b3e9" style="fill: var(--color4, #00b3e9)" d="M39 13h-4v-4c0-0.55-0.45-1-1-1h-2c-0.55 0-1 0.45-1 1v4h-4c-0.55 0-1 0.45-1 1v2c0 0.55 0.45 1 1 1h4v4c0 0.55 0.45 1 1 1h2c0.55 0 1-0.45 1-1v-4h4c0.55 0 1-0.45 1-1v-2c0-0.55-0.45-1-1-1zM14 16c4.419 0 8-3.581 8-8s-3.581-8-8-8-8 3.581-8 8 3.581 8 8 8zM19.6 18h-1.044c-1.387 0.637-2.931 1-4.556 1s-3.162-0.363-4.556-1h-1.044c-4.638 0-8.4 3.762-8.4 8.4v2.6c0 1.656 1.344 3 3 3h22c1.656 0 3-1.344 3-3v-2.6c0-4.637-3.762-8.4-8.4-8.4z"></path>
</symbol>
<symbol id="view" viewBox="0 0 32 32">
<path fill="#d4dee3" style="fill: var(--color2, #d4dee3)" d="M16 6.463c-6.114 0-11.658 3.345-15.75 8.778-0.334 0.445-0.334 1.067 0 1.512 4.091 5.44 9.636 8.785 15.75 8.785s11.658-3.345 15.75-8.778c0.334-0.445 0.334-1.067 0-1.512-4.091-5.44-9.636-8.785-15.75-8.785zM16.439 22.716c-4.059 0.255-7.41-3.090-7.155-7.155 0.209-3.352 2.926-6.068 6.278-6.278 4.058-0.255 7.41 3.090 7.155 7.155-0.216 3.345-2.933 6.062-6.278 6.278zM16.236 19.613c-2.186 0.137-3.993-1.663-3.849-3.849 0.111-1.807 1.578-3.266 3.384-3.384 2.186-0.137 3.993 1.663 3.849 3.849-0.118 1.813-1.584 3.273-3.384 3.384z"></path>
</symbol>
<symbol id="youtube" viewBox="0 0 36 32">
<path fill="#fff" style="fill: var(--color3, #fff)" d="M34.353 7.755c-0.393-1.478-1.549-2.642-3.018-3.037-2.662-0.718-13.336-0.718-13.336-0.718s-10.674 0-13.336 0.718c-1.469 0.395-2.625 1.559-3.018 3.037-0.713 2.679-0.713 8.269-0.713 8.269s0 5.59 0.713 8.269c0.393 1.478 1.549 2.594 3.018 2.989 2.662 0.718 13.336 0.718 13.336 0.718s10.674 0 13.336-0.718c1.469-0.395 2.625-1.511 3.018-2.989 0.713-2.679 0.713-8.269 0.713-8.269s0-5.59-0.713-8.269zM14.509 21.099v-10.15l8.921 5.075-8.921 5.075z"></path>
</symbol>
</defs>
</svg>
